<!--DMWS-SVG-OPTIONS:names6|ids|defs|fonts|embed|frag|img|links||hide|blank|images|fonts|fonts.alt|0|Arial>Arimo,Liberation Sans,sans-serif,Book Antiqua>P052,Palatino,serif,Calibri>Carlito,sans-serif,Calibri Light>Carlito,sans-serif,Cambria>Caladea,serif,Cambria Math>Caladea,serif,Candara>Carlito,sans-serif,Century Gothic>Questrial,sans-serif,Consolas>Inconsolata,monospace,Constantia>Caladea,serif,Corbel>Carlito,sans-serif,Courier New>Cousine,Liberation Mono,monospace,Garamond>EB Garamond,serif,Georgia>Gelasio,serif,Helvetica>Arimo,Liberation Sans,sans-serif,Lucida Console>DejaVu Sans Mono,monospace,Palatino Linotype>P052,Palatino,serif,Segoe UI>Selawik,Arimo,sans-serif,Segoe UI Light>Selawik,Arimo,sans-serif,Segoe UI Semibold>Selawik,Arimo,sans-serif,Tahoma>DejaVu Sans,Verdana,sans-serif,Times New Roman>Tinos,Liberation Serif,serif,Trebuchet MS>Fira Sans,sans-serif,Verdana>DejaVu Sans,sans-serif-->
<svg width="1280" height="720" xmlns="http://www.w3.org/2000/svg" xmlns:xlink="http://www.w3.org/1999/xlink" overflow="hidden"><defs><style type="text/css"><![CDATA[@font-face{font-family:'Carlito';src:url('fonts/Carlito-normal-normal.ttf') format('truetype');font-weight:normal;font-style:normal;font-display:swap;}
@font-face{font-family:'Carlito';src:url('fonts/Carlito-bold-normal.ttf') format('truetype');font-weight:bold;font-style:normal;font-display:swap;}
@font-face{font-family:'Carlito';src:url('fonts/Carlito-normal-italic.ttf') format('truetype');font-weight:normal;font-style:italic;font-display:swap;}
@font-face{font-family:'Carlito';src:url('fonts/Carlito-bold-italic.ttf') format('truetype');font-weight:bold;font-style:italic;font-display:swap;}]]></style><clipPath id="clip0--gSlide--Slide24"><rect x="0" y="0" width="1280" height="720" /></clipPath><clipPath id="clip1--Content_Placeholder_10--Slide24--2"><rect x="0" y="0" width="10753725" height="5781675" /></clipPath><image width="1920" height="1032" xlink:href="images/Our-Pitch-to-You-Slide7--img2--Content_Placeholder_10--Slide24--2.jpg" preserveAspectRatio="none" id="img2--Content_Placeholder_10--Slide24--2"></image><clipPath id="clip3--Content_Placeholder_10--Slide24--2"><rect x="0" y="0" width="10753726" height="5780128" /></clipPath><clipPath id="clip4--__Slide--Slide24--4"><rect x="-4.65661e-10" y="0" width="6429375" height="3686175" /></clipPath><image width="1152" height="660" xlink:href="images/Our-Pitch-to-You-Slide7--img5--__Slide--Slide24--4.jpg" preserveAspectRatio="none" id="img5--__Slide--Slide24--4"></image><clipPath id="clip6--__Slide--Slide24--4"><rect x="0" y="0" width="6429375" height="3683496" /></clipPath><clipPath id="clip7--__Office--Slide24--8"><rect x="0" y="0" width="1323975" height="1257300" /></clipPath><image width="320" height="180" xlink:href="images/Our-Pitch-to-You-Slide7--img8--__Office--Slide24--8.png" preserveAspectRatio="none" id="img8--__Office--Slide24--8"></image><clipPath id="clip9--__Office--Slide24--8"><path d="M847754 221861 2169234 221861 2169234 1479161 847754 1479161Z" fill-rule="evenodd" clip-rule="evenodd" /></clipPath><clipPath id="clip10--Narration_Slide24--Slide24--9"><rect x="0" y="0" width="609600" height="609600" /></clipPath><image width="64" height="64" xlink:href="images/Our-Pitch-to-You-Slide7--img11--Narration_Slide24--Slide24--9.png" preserveAspectRatio="none" id="img11--Narration_Slide24--Slide24--9"></image><clipPath id="clip12--Narration_Slide24--Slide24--9"><rect x="-1" y="-0.5" width="609600" height="609600" /></clipPath></defs><g clip-path="url(#clip0--gSlide--Slide24)" id="gSlide--Slide24"><rect x="0" y="0" width="1280" height="720" fill="#FFFFFF" id="rectSlide--Slide24--0" /><rect x="0.500053" y="67.5001" width="1280" height="619" stroke="#FFFFFF" stroke-width="1.33333" stroke-miterlimit="8" fill="none" id="ViewBox--Slide24--1" /><g clip-path="url(#clip1--Content_Placeholder_10--Slide24--2)" transform="matrix(0.000104987 0 0 0.000104987 75 72)" id="Content_Placeholder_10--Slide24--2"><g clip-path="url(#clip3--Content_Placeholder_10--Slide24--2)" transform="matrix(1 0 0 1.00027 -0.0625 -0.0625)"><use width="100%" height="100%" xlink:href="#img2--Content_Placeholder_10--Slide24--2" transform="scale(5600.9 5600.9)"></use></g></g><path d="M73 70 1206 70 1206 681 73 681Z" stroke="#4F81BD" stroke-width="4" stroke-linejoin="round" stroke-miterlimit="10" fill="none" fill-rule="evenodd" id="Content_Placeholder_10--Slide24--3" /><g clip-path="url(#clip4--__Slide--Slide24--4)" transform="matrix(0.000104987 0 0 0.000104987 434 218)" id="__Slide--Slide24--4"><g clip-path="url(#clip6--__Slide--Slide24--4)" transform="matrix(1 0 0 1.00073 0 -0.125)"><use width="100%" height="100%" xlink:href="#img5--__Slide--Slide24--4" transform="scale(5581.05 5581.05)"></use></g></g><rect x="0" y="0" width="1280" height="67" fill="#7030A0" id="TitlePlaceholder--Slide24--5" /><text fill="#FFFFFF" font-family="Carlito,sans-serif" font-weight="300" font-size="42.6667" transform="translate(9.6 46)" id="TitlePlaceholder--Slide24--6">Using PowerPoint to Create the Visuals</text><text fill="#FFFFFF" font-family="Carlito,sans-serif" font-weight="400" font-size="21.3333" transform="translate(1142.08 26)" id="SectionNameTextPlaceholder--Slide24--7">Common Tools</text><g clip-path="url(#clip7--__Office--Slide24--8)" transform="matrix(0.000104987 0 0 0.000104987 1128 121)" id="__Office--Slide24--8"><g clip-path="url(#clip9--__Office--Slide24--8)" transform="matrix(1.00189 0 0 1 -849355 -221861)"><use width="100%" height="100%" xlink:href="#img8--__Office--Slide24--8" transform="scale(9539.22 9539.22)"></use></g></g><a id="Narration_Slide24--Slide24--9__LINK" href=""><g clip-path="url(#clip10--Narration_Slide24--Slide24--9)" transform="matrix(0.000104987 0 0 0.000104987 1200 640)" id="Narration_Slide24--Slide24--9" style="display:none;"><g clip-path="url(#clip12--Narration_Slide24--Slide24--9)"><use width="100%" height="100%" xlink:href="#img11--Narration_Slide24--Slide24--9" transform="matrix(9525 0 0 9525 -1 -0.5)"></use></g></g></a><path d="M1050 557C1050 552.582 1053.58 549 1058 549L1095 549C1099.42 549 1103 552.582 1103 557L1103 589C1103 593.418 1099.42 597 1095 597L1058 597C1053.58 597 1050 593.418 1050 589Z" stroke="#00B050" stroke-width="6" stroke-miterlimit="8" fill="none" fill-rule="evenodd" id="__Highlight1--Slide24--10" class="fragment-off" data-fragment-index="1" /><path d="M684.5 615.333C684.5 611.559 687.559 608.5 691.333 608.5L1212.67 608.5C1216.44 608.5 1219.5 611.559 1219.5 615.333L1219.5 642.667C1219.5 646.441 1216.44 649.5 1212.67 649.5L691.333 649.5C687.559 649.5 684.5 646.441 684.5 642.667Z" stroke="#00B050" stroke-width="3" stroke-miterlimit="8" fill="#00B050" fill-rule="evenodd" id="Rounded_Rectangle_6--Slide24--11" class="fragment-off" data-fragment-index="2" /><text fill="#FFFFFF" font-family="Carlito,sans-serif" font-weight="400" font-size="24" transform="translate(721.25 636)" id="Rounded_Rectangle_6--Slide24--12" class="fragment-off" data-fragment-index="2">Create Interactive Experiences like Bible Games</text></g></svg>