<!--DMWS-SVG-OPTIONS:names6|ids|defs|fonts|embed|frag|img|links||hide|blank|images|fonts|fonts.alt|0|Arial>Arimo,Liberation Sans,sans-serif,Book Antiqua>P052,Palatino,serif,Calibri>Carlito,sans-serif,Calibri Light>Carlito,sans-serif,Cambria>Caladea,serif,Cambria Math>Caladea,serif,Candara>Carlito,sans-serif,Century Gothic>Questrial,sans-serif,Consolas>Inconsolata,monospace,Constantia>Caladea,serif,Corbel>Carlito,sans-serif,Courier New>Cousine,Liberation Mono,monospace,Garamond>EB Garamond,serif,Georgia>Gelasio,serif,Helvetica>Arimo,Liberation Sans,sans-serif,Lucida Console>DejaVu Sans Mono,monospace,Palatino Linotype>P052,Palatino,serif,Segoe UI>Selawik,Arimo,sans-serif,Segoe UI Light>Selawik,Arimo,sans-serif,Segoe UI Semibold>Selawik,Arimo,sans-serif,Tahoma>DejaVu Sans,Verdana,sans-serif,Times New Roman>Tinos,Liberation Serif,serif,Trebuchet MS>Fira Sans,sans-serif,Verdana>DejaVu Sans,sans-serif-->
<svg width="1280" height="720" xmlns="http://www.w3.org/2000/svg" xmlns:xlink="http://www.w3.org/1999/xlink" overflow="hidden"><defs><style type="text/css"><![CDATA[@font-face{font-family:'Carlito';src:url('fonts/Carlito-normal-normal.ttf') format('truetype');font-weight:normal;font-style:normal;font-display:swap;}
@font-face{font-family:'Carlito';src:url('fonts/Carlito-bold-normal.ttf') format('truetype');font-weight:bold;font-style:normal;font-display:swap;}
@font-face{font-family:'Carlito';src:url('fonts/Carlito-normal-italic.ttf') format('truetype');font-weight:normal;font-style:italic;font-display:swap;}
@font-face{font-family:'Carlito';src:url('fonts/Carlito-bold-italic.ttf') format('truetype');font-weight:bold;font-style:italic;font-display:swap;}]]></style><clipPath id="clip0--gSlide--Slide24"><rect x="0" y="0" width="1280" height="720" /></clipPath><clipPath id="clip1--Content_Placeholder_12--Slide24--5"><rect x="0" y="0" width="10753725" height="5781675" /></clipPath><image width="1915" height="1029" xlink:href="images/Our-Pitch-to-You-Slide7--img2--Content_Placeholder_12--Slide24--5.jpg" preserveAspectRatio="none" id="img2--Content_Placeholder_12--Slide24--5"></image><clipPath id="clip3--Content_Placeholder_12--Slide24--5"><rect x="0" y="0" width="10753726" height="5778372" /></clipPath><image width="1000" height="566" xlink:href="images/Our-Pitch-to-You-Slide7--img4--__Slide--Slide24--7.jpg" preserveAspectRatio="none" id="img4--__Slide--Slide24--7"></image><clipPath id="clip5--__Slide--Slide24--7"><rect x="0" y="0" width="5619750" height="3180778" /></clipPath><clipPath id="clip6--__Office--Slide24--9"><rect x="0" y="0" width="1323975" height="1257300" /></clipPath><image width="320" height="180" xlink:href="images/Our-Pitch-to-You-Slide7--img7--__Office--Slide24--9.png" preserveAspectRatio="none" id="img7--__Office--Slide24--9"></image><clipPath id="clip8--__Office--Slide24--9"><path d="M847754 221861 2169234 221861 2169234 1479161 847754 1479161Z" fill-rule="evenodd" clip-rule="evenodd" /></clipPath><clipPath id="clip9--Narration_Slide24--Slide24--12"><rect x="0" y="0" width="609600" height="609600" /></clipPath><image width="64" height="64" xlink:href="images/Our-Pitch-to-You-Slide7--img10--Narration_Slide24--Slide24--12.png" preserveAspectRatio="none" id="img10--Narration_Slide24--Slide24--12"></image><clipPath id="clip11--Narration_Slide24--Slide24--12"><rect x="-1" y="-0.5" width="609600" height="609600" /></clipPath></defs><g clip-path="url(#clip0--gSlide--Slide24)" id="gSlide--Slide24"><rect x="0" y="0" width="1280" height="720" fill="#FFFFFF" id="rectSlide--Slide24--0" /><rect x="0.500053" y="67.5001" width="1280" height="619" stroke="#FFFFFF" stroke-width="1.33333" stroke-miterlimit="8" fill="none" id="ViewBox--Slide24--1" /><rect x="0" y="0" width="1280" height="67" fill="#7030A0" id="TitlePlaceholder--Slide24--2" /><text fill="#FFFFFF" font-family="Carlito,sans-serif" font-weight="300" font-size="42.6667" transform="translate(9.6 46)" id="TitlePlaceholder--Slide24--3">Using PowerPoint to Create the Visuals</text><text fill="#FFFFFF" font-family="Carlito,sans-serif" font-weight="400" font-size="21.3333" transform="translate(1126.62 26)" id="SectionNameTextPlaceholder--Slide24--4">Ubiquitous Tools</text><g clip-path="url(#clip1--Content_Placeholder_12--Slide24--5)" transform="matrix(0.000104987 0 0 0.000104987 75 72)" id="Content_Placeholder_12--Slide24--5"><g clip-path="url(#clip3--Content_Placeholder_12--Slide24--5)" transform="matrix(1 0 0 1.00057 -0.0625 -0.0625)"><use width="100%" height="100%" xlink:href="#img2--Content_Placeholder_12--Slide24--5" transform="scale(5615.52 5615.52)"></use></g></g><path d="M73 70 1206 70 1206 681 73 681Z" stroke="#4F81BD" stroke-width="4" stroke-linejoin="round" stroke-miterlimit="10" fill="none" fill-rule="evenodd" id="Content_Placeholder_12--Slide24--6" /><g transform="matrix(0.000104987 0 0 0.000104987 493 221)" id="__Slide--Slide24--7"><g clip-path="url(#clip5--__Slide--Slide24--7)" transform="scale(1 1.00018)"><use width="100%" height="100%" xlink:href="#img4--__Slide--Slide24--7" transform="scale(5619.75 5619.75)"></use></g></g><path d="M1025 515C1025 510.582 1028.58 507 1033 507L1075 507C1079.42 507 1083 510.582 1083 515L1083 547C1083 551.418 1079.42 555 1075 555L1033 555C1028.58 555 1025 551.418 1025 547Z" stroke="#00B050" stroke-width="6" stroke-miterlimit="8" fill="none" fill-rule="evenodd" id="__Highlight1--Slide24--8" class="fragment-off" data-fragment-index="1" /><g clip-path="url(#clip6--__Office--Slide24--9)" transform="matrix(0.000104987 0 0 0.000104987 1128 121)" id="__Office--Slide24--9"><g clip-path="url(#clip8--__Office--Slide24--9)" transform="matrix(1.00189 0 0 1 -849355 -221861)"><use width="100%" height="100%" xlink:href="#img7--__Office--Slide24--9" transform="scale(9539.22 9539.22)"></use></g></g><path d="M684.5 591.333C684.5 587.559 687.559 584.5 691.333 584.5L1212.67 584.5C1216.44 584.5 1219.5 587.559 1219.5 591.333L1219.5 618.667C1219.5 622.441 1216.44 625.5 1212.67 625.5L691.333 625.5C687.559 625.5 684.5 622.441 684.5 618.667Z" stroke="#00B050" stroke-width="3" stroke-miterlimit="8" fill="#00B050" fill-rule="evenodd" id="Rounded_Rectangle_6--Slide24--10" class="fragment-off" data-fragment-index="2" /><text fill="#FFFFFF" font-family="Carlito,sans-serif" font-weight="400" font-size="24" transform="translate(721.25 612)" id="Rounded_Rectangle_6--Slide24--11" class="fragment-off" data-fragment-index="2">Create Interactive Experiences like Bible Games</text><a id="Narration_Slide24--Slide24--12__LINK" href=""><g clip-path="url(#clip9--Narration_Slide24--Slide24--12)" transform="matrix(0.000104987 0 0 0.000104987 1200 640)" id="Narration_Slide24--Slide24--12" style="display:none;"><g clip-path="url(#clip11--Narration_Slide24--Slide24--12)"><use width="100%" height="100%" xlink:href="#img10--Narration_Slide24--Slide24--12" transform="matrix(9525 0 0 9525 -1 -0.5)"></use></g></g></a></g></svg>