<!--DMWS-SVG-OPTIONS:names5|ids|defs|fonts|embed|frag|img|links||hide|blank|images|fonts|fonts.alt|0|Arial>Arimo,Liberation Sans,sans-serif,Book Antiqua>P052,Palatino,serif,Calibri>Carlito,sans-serif,Calibri Light>Carlito,sans-serif,Cambria>Caladea,serif,Cambria Math>Caladea,serif,Candara>Carlito,sans-serif,Century Gothic>Questrial,sans-serif,Consolas>Inconsolata,monospace,Constantia>Caladea,serif,Corbel>Carlito,sans-serif,Courier New>Cousine,Liberation Mono,monospace,Garamond>EB Garamond,serif,Georgia>Gelasio,serif,Helvetica>Arimo,Liberation Sans,sans-serif,Lucida Console>DejaVu Sans Mono,monospace,Palatino Linotype>P052,Palatino,serif,Segoe UI>Selawik,Arimo,sans-serif,Segoe UI Light>Selawik,Arimo,sans-serif,Segoe UI Semibold>Selawik,Arimo,sans-serif,Tahoma>DejaVu Sans,Verdana,sans-serif,Times New Roman>Tinos,Liberation Serif,serif,Trebuchet MS>Fira Sans,sans-serif,Verdana>DejaVu Sans,sans-serif-->
<svg width="1280" height="720" xmlns="http://www.w3.org/2000/svg" xmlns:xlink="http://www.w3.org/1999/xlink" overflow="hidden"><defs><style type="text/css"><![CDATA[@font-face{font-family:'Carlito';src:url('fonts/Carlito-normal-normal.ttf') format('truetype');font-weight:normal;font-style:normal;font-display:swap;}
@font-face{font-family:'Carlito';src:url('fonts/Carlito-bold-normal.ttf') format('truetype');font-weight:bold;font-style:normal;font-display:swap;}
@font-face{font-family:'Carlito';src:url('fonts/Carlito-normal-italic.ttf') format('truetype');font-weight:normal;font-style:italic;font-display:swap;}
@font-face{font-family:'Carlito';src:url('fonts/Carlito-bold-italic.ttf') format('truetype');font-weight:bold;font-style:italic;font-display:swap;}]]></style><clipPath id="clip0--gSlide--Slide27"><rect x="0" y="0" width="1280" height="720" /></clipPath><clipPath id="clip1--__Screen4--Slide27--7"><rect x="0" y="0" width="10753725" height="5781675" /></clipPath><image width="1920" height="1032" xlink:href="images/Our-Pitch-to-You-Slide14--img2--__Screen4--Slide27--7.jpg" preserveAspectRatio="none" id="img2--__Screen4--Slide27--7"></image><clipPath id="clip3--__Screen4--Slide27--7"><rect x="0" y="0" width="10753726" height="5780128" /></clipPath><clipPath id="clip4--Narration_Slide27--Slide27--13"><rect x="0" y="0" width="609600" height="609600" /></clipPath><image width="64" height="64" xlink:href="images/Our-Pitch-to-You-Slide14--img5--Narration_Slide27--Slide27--13.png" preserveAspectRatio="none" id="img5--Narration_Slide27--Slide27--13"></image><clipPath id="clip6--Narration_Slide27--Slide27--13"><rect x="-1" y="-0.5" width="609600" height="609600" /></clipPath></defs><g clip-path="url(#clip0--gSlide--Slide27)" id="gSlide--Slide27"><rect x="0" y="0" width="1280" height="720" fill="#FFFFFF" id="rectSlide--Slide27--0" /><rect x="0.500053" y="67.5001" width="1280" height="619" stroke="#FFFFFF" stroke-width="1.33333" stroke-miterlimit="8" fill="none" id="ViewBox--Slide27--1" /><rect x="0" y="0" width="1280" height="67" fill="#8064A2" id="Title_1--Slide27--2" /><text fill="#FFFFFF" font-family="Carlito,sans-serif" font-weight="300" font-size="42.6667" transform="translate(9.6 46)" id="Title_1--Slide27--3">Slide Site Designer</text><text fill="#FFFFFF" font-family="Carlito,sans-serif" font-weight="300" font-size="42.6667" transform="translate(334.847 46)" id="Title_1--Slide27--4">–</text><text fill="#FFFFFF" font-family="Carlito,sans-serif" font-weight="300" font-size="42.6667" transform="translate(365.847 46)" id="Title_1--Slide27--5">Refine Site and Publish</text><text fill="#FFFFFF" font-family="Carlito,sans-serif" font-weight="400" font-size="21.3333" transform="translate(1087.71 26)" id="Text_Placeholder_2--Slide27--6">Ubiquitous Platforms</text><g clip-path="url(#clip1--__Screen4--Slide27--7)" transform="matrix(0.000104987 0 0 0.000104987 75 72)" id="__Screen4--Slide27--7"><g clip-path="url(#clip3--__Screen4--Slide27--7)" transform="matrix(1 0 0 1.00027 -0.0625 -0.0625)"><use width="100%" height="100%" xlink:href="#img2--__Screen4--Slide27--7" transform="scale(5600.9 5600.9)"></use></g></g><path d="M73 70 1206 70 1206 681 73 681Z" stroke="#4F81BD" stroke-width="4" stroke-linejoin="round" stroke-miterlimit="10" fill="none" fill-rule="evenodd" id="__Screen4--Slide27--8" /><path d="M626.5 293.334C626.5 289.56 629.56 286.5 633.333 286.5L1231.67 286.5C1235.44 286.5 1238.5 289.56 1238.5 293.334L1238.5 320.667C1238.5 324.441 1235.44 327.5 1231.67 327.5L633.333 327.5C629.56 327.5 626.5 324.441 626.5 320.667Z" stroke="#00B050" stroke-width="3" stroke-miterlimit="8" fill="#00B050" fill-rule="evenodd" id="Rounded_Rectangle_7--Slide27--9" class="fragment-off" data-fragment-index="1" /><text fill="#FFFFFF" font-family="Carlito,sans-serif" font-weight="400" font-size="24" transform="translate(658.667 314)" id="Rounded_Rectangle_7--Slide27--10" class="fragment-off" data-fragment-index="1">TheMultimodalBible.org site and data is hosted for</text><text fill="#FFFFFF" font-family="Carlito,sans-serif" font-weight="400" font-size="24" transform="translate(1157.87 314)" id="Rounded_Rectangle_7--Slide27--11" class="fragment-off" data-fragment-index="1">FREE</text><path d="M62 204.334C62 200.836 64.8356 198 68.3335 198L222.666 198C226.164 198 229 200.836 229 204.334L229 229.666C229 233.164 226.164 236 222.666 236L68.3335 236C64.8356 236 62 233.164 62 229.666Z" stroke="#00B050" stroke-width="6" stroke-miterlimit="8" fill="none" fill-rule="evenodd" id="__Play--Slide27--12" /><a id="Narration_Slide27--Slide27--13__LINK" href=""><g clip-path="url(#clip4--Narration_Slide27--Slide27--13)" transform="matrix(0.000104987 0 0 0.000104987 1200 640)" id="Narration_Slide27--Slide27--13" style="display:none;"><g clip-path="url(#clip6--Narration_Slide27--Slide27--13)"><use width="100%" height="100%" xlink:href="#img5--Narration_Slide27--Slide27--13" transform="matrix(9525 0 0 9525 -1 -0.5)"></use></g></g></a></g></svg>